<svg xmlns="http://www.w3.org/2000/svg" width="86.526" height="60" viewBox="0 0 86.526 60">
  <g id="Group_1" data-name="Group 1" transform="translate(-548)">
    <path id="Path_1" data-name="Path 1" d="M161.4,134.97a12.618,12.618,0,1,1-12.618,12.618A12.618,12.618,0,0,1,161.4,134.97" transform="translate(429.863 -107.567)" fill="#969696" fill-rule="evenodd"/>
    <path id="Path_2" data-name="Path 2" d="M12.618,170.714A12.618,12.618,0,1,1,0,183.332a12.618,12.618,0,0,1,12.618-12.618" transform="translate(548 -135.949)" fill="#009be1" fill-rule="evenodd"/>
    <path id="Path_3" data-name="Path 3" d="M310.182,170.714a12.618,12.618,0,1,1-12.618,12.618,12.618,12.618,0,0,1,12.618-12.618" transform="translate(311.726 -135.949)" fill="#009be1" fill-rule="evenodd"/>
    <path id="Path_4" data-name="Path 4" d="M75.709,21.634H10.817A10.817,10.817,0,1,1,10.817,0H75.709a10.817,10.817,0,1,1,0,21.634" transform="translate(548 0)" fill="#005078" fill-rule="evenodd"/>
  </g>
</svg>