<?xml version="1.0" encoding="utf-8"?>
<!-- Generator: Adobe Illustrator 23.0.3, SVG Export Plug-In . SVG Version: 6.00 Build 0)  -->
<svg version="1.1" id="Layer_1" xmlns="http://www.w3.org/2000/svg" xmlns:xlink="http://www.w3.org/1999/xlink" x="0px" y="0px"
	 viewBox="0 0 288 288" enable-background="new 0 0 288 288" xml:space="preserve">
<g>
	<g>
		<path fill="#8B5E3C" d="M272.9,73.8c-1.9,0.4-5.2,1.3-9.2,4.1c-7.1,4.4-12.7,15.6-16.6,28.4c-3,9.3-5.5,18.7-12,26.2
			c0.9-1.7,1.9-3.6,2.7-5.6c3.4-9.1,4-20.7,1.1-31.8c-2.4-10.4-8.2-20-2.5-29.7l0.8-1l-1.8,1.2c-1.1,0.7-2.6,2.1-4.2,4.5
			c-2.9,4.6-3.4,12.7-2,21.2c2.6,14.2,4.2,32.1-5.9,50.5c-8.1,5.9-16.5,12.4-23.9,20.2c0-7.1-1.1-13.7-0.3-19.7
			c0.4-3.6,2.5-9.4,2.5-15c0.9-5.5-3.4-14.4-10.2-15c-5.7-2-14.3,1.4-14.8,8.3c-1.2,5,3.1,11,7.6,10.4c1.1,0,2.2-0.4,3.2-1.2
			c-0.6,0.2-2.1,0.7-3.7,0.4c-2.1-0.6-4.6-2.4-4.1-7.4c-0.2-8.9,19.8-6.9,13.2,7.9c-8.2,14.7,2.7,37.5-9.2,49.4
			c-3.2,4.3-7.6,7.1-12.6,10.1c0.6-1.6,0.9-3.4,1-5.2c0.3-7.5-4.1-10.8-0.1-16.2l0.5-0.5l-1.1,0.3c-0.7,0.1-2,0.3-3.5,1.5
			c-2.9,1.9-4.1,7.3-4.4,11.5c-0.5,3.8-2,7.3-4.7,11.2c-2,3.2-10.4,8.6-10.2,16.5l1.2-1.2l0.3-0.2c-1,1.4-2,2.9-2.8,4.4
			c0,0.1,0,0.2,0.1,0.3l3.4,0.9c0.1-0.1,0.1-0.2,0.1-0.2c5-5.3,10.6-10.9,17.2-14.3c0.8-0.6,1.5-1.3,2.3-1.9
			c0.8-0.6,1.7-0.9,2.5-0.9c5-2.1,17.3-8,23.3-17.8c1.1-2.2,2.1-4.6,2.6-7.3l0.2-1.7c5.8-4.6,13.1-10,22-15.5
			c5.3-3.7,12.6-6.6,19.4-12.7c7.3-6,10.7-15.4,12.9-23.8c4.4-15.3,4.6-33.6,18.8-42.4l2.1-1.1l1.8-0.8
			C275.2,73.3,274.3,73.4,272.9,73.8z"/>
		<path fill="#8B5E3C" d="M129.3,213.5h3.2c0.2-0.3,0.5-0.5,0.5-0.8c0,0,0,0,0,0c-0.1,0-0.1,0-0.2,0c-0.9-1.9-1.8-3.7-3-5.4l0.3,0.2
			l1.2,1.2c0.6-7.9-7.5-13.8-9.3-17.1c-2.5-4-3.8-7.6-4-11.4c-0.1-4.2-1-9.7-3.7-11.7c-1.4-1.3-2.6-1.6-3.4-1.7l-1.1-0.4l0.4,0.4
			c3.6,5.6-0.9,8.6-1.1,16.2c0,1.8,0.2,3.6,0.7,5.3c-4.8-3.3-9-6.4-12-10.9c-11.3-12.6,1-34.7-6.3-49.9
			c-5.6-15.2,14.4-15.9,13.7-7.1c0.2,5-2.3,6.7-4.5,7.1c-1.6,0.2-3.1-0.4-3.7-0.6c1,0.9,2.1,1.3,3.2,1.4c4.5,0.9,9.2-4.8,8.2-9.9
			c-0.1-6.9-8.5-10.8-14.3-9.1c-6.9,0.2-11.7,8.8-11.1,14.3c-0.3,5.6,1.5,11.5,1.6,15.1c0.4,6-1.1,12.6-1.5,19.6
			c-7-8.2-14.9-15.2-22.7-21.6c-9-19-6.4-36.8-2.9-50.8c1.9-8.4,1.8-16.5-0.8-21.3c-1.4-2.5-2.9-4-3.9-4.8l-1.7-1.3l0.7,1
			c5.1,10-1.3,19.3-4.2,29.6c-3.6,10.8-3.7,22.5-0.9,31.8c0.7,2.1,1.5,4,2.3,5.8c-6-8-7.9-17.4-10.3-26.9
			c-3.2-13-8.1-24.5-14.9-29.3c-3.9-3-7-4.1-9-4.7c-1.4-0.4-2.3-0.6-2.7-0.8l1.8,1l1.9,1.2c13.7,9.6,12.7,27.8,16.2,43.4
			c1.7,8.5,4.6,18,11.5,24.5c6.4,6.5,13.5,9.8,18.6,13.8c8.6,6,15.6,11.9,21,16.9l0.2,1.7c0.7,4.7,2.6,8.6,4.9,12.1
			c2.2,2.1,13.1,12.3,21.1,17.2c3.4,1.7,6.5,3.4,9,5.5c3.3,2.7,6.2,5.4,8.5,8C127.9,211.6,128.6,212.6,129.3,213.5z"/>
	</g>
	<path d="M177,95.2c-0.2-0.1-0.3-0.1-0.4,0c-1.7,4.3-3.9,8.4-6.6,12.2c-0.3,0.5-0.6,1-0.9,1.5c-0.3,0.5-0.7,0.9-1.2,1.2
		c-0.2,0.1-0.3,0.2-0.4,0.2s-0.2,0-0.6,0c-0.4,0-0.6-0.1-0.6-0.1c0,0,0-0.2-0.1-0.4c-0.1-0.3-0.2-0.5-0.2-0.9c0-0.3-0.1-0.6-0.1-0.9
		c-0.1-1.1-0.1-2.3,0.1-3.4c0.1-1.1,0.4-2.3,0.7-3.3c0.3-1.1,0.7-2.3,1-3.3c0.3-1.1,0.7-2.2,1-3.3c0.2-0.8,0.5-1.7,0.8-2.7
		c0.3-1,0.2-1.9-0.2-2.7c-0.4-0.8-1-1.2-1.8-1.2c-0.8,0.1-1.5,0.3-2.3,0.9s-1.5,1.1-2.2,1.7c-0.7,0.7-1.2,1.2-1.6,1.5
		c-0.7,0.8-1.4,1.6-2,2.4c-0.6,0.9-1.2,1.7-1.8,2.6c-0.1,0.2-0.3,0.4-0.4,0.6c-0.1,0.2-0.2,0.4-0.3,0.6c0.1-0.7,0.2-1.3,0.3-2
		c0.1-0.7,0.2-1.3,0.3-2c3.2-2.2,6-4.8,8.4-7.8c1.5-1.9,2.8-3.8,3.9-5.8c0.5-1,1-2,1.6-3.2c0.5-1.2,0.8-2.3,0.9-3.4
		c0.1-0.9-0.2-1.8-0.8-2.5c-0.6-0.7-1.3-1.2-2.2-1.4c-0.6-0.1-1.1-0.1-1.6,0.1c-0.5,0.2-1,0.5-1.4,0.9c-0.4,0.4-0.8,0.8-1.2,1.3
		c-0.4,0.5-0.7,0.9-1,1.3c-1.5,2-2.9,4.1-4.1,6.3c-1.2,2.2-2.3,4.5-3.1,6.9c-0.9,2.6-1.7,5.3-2.2,8.1c0,0,0,0,0,0
		c-0.5,0.3-1,0.6-1.6,1c-0.7,0.5-1.4,0.9-2.1,1.4c-0.7,0.5-1.5,1-2.1,1.5s-1.3,0.9-1.9,1.2c0.1-0.3,0.2-0.5,0.3-0.7
		c0.1-0.2,0.2-0.5,0.3-0.7c0.6-1.9,1.2-3.7,1.8-5.6c0.5-1.9,1-3.8,1.3-5.7c0.3-1.7,0.4-3.4,0.4-5.2c0-1.8-0.2-3.5-0.7-5.2
		s-1.1-3.3-1.9-4.8s-2-2.9-3.3-4c-1.4-1.2-2.9-2.1-4.5-2.6c-1.6-0.6-3.3-0.9-5-0.9c-1.7-0.1-3.5,0.1-5.2,0.5s-3.4,0.9-4.9,1.6
		c-2.9,1.3-5.5,3.1-7.9,5.4c-2.3,2.3-4.1,4.9-5.3,7.9c-1.2,2.8-1.7,5.7-1.5,8.8c0.2,3.1,1,6,2.5,8.6c1.3,2.2,2.9,4.1,4.9,5.7
		c-0.5,1.9-0.7,3.7-0.7,5.4c0,1.5,0.1,3,0.5,4.5c0.4,1.5,1.1,2.8,2.2,3.9c1.1,1.1,2.4,1.9,3.9,2.4c1.5,0.5,3,0.6,4.5,0.5
		c1.7-0.2,3.3-0.6,4.7-1.4s2.8-1.7,4.1-2.7c1.2-1.1,2.4-2.3,3.4-3.6s1.9-2.7,2.7-4.1c0.5-1,1.1-1.9,1.5-2.9c0.5-1,0.9-2,1.3-3
		c0.5-0.3,1-0.7,1.5-1c0.5-0.3,1-0.6,1.5-1c0.4-0.3,0.9-0.6,1.5-1c0.6-0.4,1.1-0.9,1.7-1.3c0.6-0.5,1.2-0.9,1.7-1.4
		c0.1-0.1,0.2-0.2,0.3-0.2c-0.4,2.4-0.5,4.8-0.5,7.2c0,0.2,0.1,0.4,0.3,0.6c0.2,0.2,0.5,0.4,0.7,0.5c0.3,0.1,0.5,0.2,0.8,0.2
		c0.2,0,0.4-0.1,0.5-0.3c0.7-1.9,1.5-3.8,2.3-5.6c0.8-1.8,1.9-3.5,3.2-5.1c0.7-0.8,1.4-1.6,2.2-2.3c0.8-0.7,1.6-1.3,2.6-1.8
		c0.3-0.2,0.6-0.3,1-0.4c0.4-0.1,0.6,0.1,0.6,0.6c0,0.3-0.1,0.5-0.2,0.8c-0.1,0.3-0.3,0.5-0.3,0.7c-0.2,0.5-0.4,1-0.6,1.5
		s-0.4,1-0.6,1.5c-0.9,2-1.7,4.1-2.4,6.3s-0.9,4.4-0.6,6.7c0.1,0.8,0.3,1.7,0.7,2.5s1,1.4,1.9,1.7c0.8,0.3,1.6,0.1,2.2-0.4
		c0.7-0.5,1.2-1.1,1.7-1.6c1.6-2.1,2.9-4.3,4.1-6.7c1.2-2.4,2.2-4.8,3-7.3C177.2,95.4,177.2,95.3,177,95.2z M158,92.5
		c0.1-0.4,0.2-0.8,0.3-1.2c0.6-2.1,1.3-4.1,2.1-6c0.8-2,1.8-3.9,2.9-5.7c0.5-1,1.1-1.9,1.7-2.8c0.6-0.9,1.3-1.7,1.9-2.6
		c0.3-0.4,0.7-0.9,1.1-1.3c0.4-0.5,0.8-0.8,1.3-0.9c0.4-0.1,0.7,0,0.9,0.2c0.2,0.2,0.4,0.5,0.4,0.8c0.1,0.3,0.1,0.7,0.2,1
		c0,0.4,0,0.7,0,0.9c-0.2,1.1-0.5,2.1-1,3.1c-0.5,1-1,2-1.4,3c-0.8,1.7-1.9,3.4-3.2,5.1c-2.2,2.9-4.7,5.4-7.6,7.6
		C157.8,93.3,157.9,92.9,158,92.5z M138.5,110.7c-1.5,2-3.2,3.7-5.2,5.1c-1.2,0.8-2.6,1.5-4.2,2c-1.6,0.5-3.1,0.6-4.6,0.2
		c-0.8-0.2-1.5-0.6-2.1-1.1c-0.5-0.5-1-1.1-1.4-1.8c-0.4-0.7-0.6-1.4-0.8-2.2c-0.2-0.8-0.3-1.6-0.3-2.3c-0.1-1-0.1-1.9,0-2.9
		c0.1-1,0.2-2,0.4-2.9c2.6,1.5,5.4,2.4,8.4,2.5c2.4,0.2,4.7,0,7-0.5c2.3-0.6,4.5-1.3,6.6-2.3C141.2,106.6,140,108.7,138.5,110.7z
		 M145.3,96.7c-0.5,1.5-1,2.9-1.6,4.4c-0.1,0.2-0.2,0.4-0.3,0.6c-0.1,0.2-0.2,0.4-0.3,0.6c-1.3,0.7-2.7,1.3-4.1,1.9
		c-1.4,0.5-2.9,0.9-4.4,1.2c-2.4,0.5-4.8,0.6-7.3,0.4c-2.5-0.3-4.7-1-6.8-2.3c0.1-0.8,0.3-1.6,0.6-2.3c0.5-1.6,1.1-3,1.9-4.4
		c0.8-1.3,1.9-2.5,3.3-3.4c0.2-0.1,0.1-0.2-0.1-0.4c-0.2-0.2-0.4-0.2-0.6-0.1c-1.8,0.9-3.2,2.1-4.4,3.8c-1.1,1.6-2,3.4-2.6,5.3
		c-0.4-0.3-0.8-0.7-1.1-1.1c-0.9-1-1.6-2.1-2.2-3.3c-0.6-1.2-1-2.5-1.4-3.8c-0.3-1.3-0.5-2.6-0.6-4c-0.1-1.4,0-2.7,0.3-4
		c0.5-2.8,1.6-5.4,3.2-7.8c1.6-2.4,3.6-4.4,5.9-6.1c1.2-0.9,2.5-1.7,3.9-2.4c1.4-0.7,2.8-1.3,4.3-1.7c1.5-0.4,3-0.7,4.5-0.8
		c1.5-0.1,3,0.1,4.5,0.5c1.5,0.4,2.7,1.1,3.8,2.1c1.1,1,1.9,2.1,2.6,3.3s1.2,2.6,1.5,4.1s0.5,2.9,0.6,4.3c0.1,1.9-0.1,3.8-0.4,5.6
		c-0.4,1.9-0.8,3.7-1.3,5.6C146.2,93.7,145.8,95.2,145.3,96.7z"/>
	<path d="M181.2,150.2c-0.2-0.1-0.3-0.1-0.4,0c-0.5,1-1.2,1.9-1.8,2.8c-0.7,0.9-1.4,1.8-2.1,2.7c-0.8,1-1.6,1.9-2.4,2.9
		c-0.8,1-1.7,1.9-2.7,2.7c-0.7,0.6-1.4,1.2-2.1,1.6c0,0-0.1,0-0.2,0.1c-0.1,0-0.1,0.1-0.2,0.1c0-0.1,0-0.2,0-0.3s-0.1-0.2-0.1-0.3
		c0-0.4,0-0.7,0.1-0.9c0.1-0.9,0.3-1.9,0.5-2.8c0.3-0.9,0.5-1.9,0.8-2.7c0.3-1,0.7-2,1-3c0.4-1,0.8-2,1.2-3c0.1-0.2,0.1-0.3,0-0.5
		c-0.1-0.1-0.3-0.3-0.4-0.4c-0.2-0.1-0.4-0.2-0.6-0.3c-0.2,0-0.3,0-0.5,0c-0.3,0.2-0.7,0.3-1.2,0.5c-0.5,0.2-0.9,0.2-1.2,0.2
		c-0.2,0-0.4-0.2-0.5-0.4c2-2,3.6-4.4,4.9-7.1c0.4-0.7,0.7-1.5,1-2.2c0.3-0.8,0.6-1.5,0.9-2.3c0.2-0.5,0.3-1,0.4-1.5
		c0.1-0.6,0-1.1-0.3-1.5c-0.3-0.5-0.7-0.7-1.3-0.9c-0.6-0.1-1.1,0-1.5,0.3c-0.6,0.5-1.1,1.1-1.5,1.9c-0.4,0.8-0.9,1.5-1.2,2.2
		c-0.8,1.4-1.5,2.9-2.2,4.5c-0.7,1.6-1.1,3.2-1.4,4.8c-0.1,0.8,0,1.4,0.3,2c0.1,0.1,0.1,0.2,0.2,0.3c-0.1,0-0.2,0-0.3,0.1
		c-0.3,1-0.8,1.9-1.4,2.7c-0.6,0.8-1.3,1.6-2.1,2.4c-0.7,0.7-1.5,1.3-2.3,1.9c-0.8,0.6-1.7,1.1-2.6,1.4c-0.9,0.3-1.9,0.5-3,0.4
		c-1.1-0.1-1.9-0.6-2.4-1.5c-0.5-0.8-0.7-1.7-0.7-2.8c0-1.1,0.1-2,0.3-2.8c0.1-0.2,0.2-0.4,0.3-0.8c1.5,0.3,2.9,0.3,4.4-0.3
		c1.4-0.5,2.6-1.4,3.5-2.7c0.5-0.6,0.7-1.3,0.8-2.1c0.1-0.8-0.2-1.6-0.8-2.1c-0.8-0.8-1.7-1.1-2.7-0.9c-1,0.1-1.9,0.5-2.7,0.9
		c-0.8,0.5-1.6,1.1-2.3,1.8c-0.7,0.7-1.3,1.5-1.8,2.4c-0.3,0.6-0.6,1.3-0.8,2c0,0-0.1,0-0.1,0c-0.3,1-0.8,1.9-1.4,2.7
		c-0.6,0.8-1.3,1.6-2.1,2.4c-0.7,0.7-1.5,1.3-2.3,1.9c-0.8,0.6-1.7,1.1-2.6,1.4c-0.9,0.3-1.9,0.5-3,0.4c-1.1-0.1-1.9-0.6-2.4-1.5
		c-0.5-0.8-0.7-1.7-0.7-2.8c0-1.1,0.1-2,0.3-2.8c0.1-0.2,0.2-0.4,0.3-0.8c1.5,0.3,2.9,0.3,4.4-0.3c1.4-0.5,2.6-1.4,3.5-2.7
		c0.5-0.6,0.7-1.3,0.8-2.1c0.1-0.8-0.2-1.6-0.8-2.1c-0.8-0.8-1.7-1.1-2.7-0.9c-1,0.1-1.9,0.5-2.7,0.9c-0.8,0.5-1.6,1.1-2.3,1.8
		c-0.7,0.7-1.3,1.5-1.8,2.4c-0.3,0.6-0.6,1.2-0.8,1.9c0,0,0,0,0,0c-0.7,1.2-1.4,2.3-2.2,3.5c-0.8,1.2-1.7,2.2-2.7,3.1
		c-0.9,0.8-1.9,1.5-2.9,2c-0.3,0.2-0.7,0.3-1.2,0.5c-0.4,0.2-0.9,0.3-1.3,0.4c-0.4,0.1-0.9,0.1-1.3,0.1c-0.4,0-0.8-0.1-1.2-0.3
		c-0.7-0.4-1.2-1-1.4-1.7c-0.2-0.7-0.3-1.5-0.3-2.3c0-0.8,0.1-1.6,0.3-2.4c0.2-0.8,0.4-1.5,0.5-2.1c0.3-1,0.6-2,0.9-3.1
		c2.4-1.1,4.6-2.5,6.6-4.3c2-1.8,3.8-3.8,5.2-6c1.8-2.6,3.1-5.3,3.9-8.3c0.2-0.5,0.3-1.1,0.3-1.7c0-0.6-0.1-1.1-0.3-1.6
		s-0.5-0.9-0.9-1.2c-0.4-0.3-1-0.4-1.8-0.3c-0.8,0.1-1.6,0.4-2.3,1c-0.7,0.6-1.3,1.2-1.9,1.7c-1.1,1.2-2.1,2.5-3.1,3.9
		c-2.1,2.9-3.9,6.1-5.4,9.5c-0.3,0.8-0.7,1.5-0.9,2.3c-0.3,0.8-0.6,1.5-0.9,2.3c-0.5-0.9-1.2-1.4-2.2-1.6c-0.8-0.2-1.6-0.2-2.3-0.1
		c-0.8,0.1-1.5,0.4-2.2,0.8c-0.7,0.4-1.3,0.9-1.9,1.4c-0.6,0.5-1.1,1.1-1.5,1.8c-0.5,0.6-0.9,1.3-1.3,2.1c-0.4,0.8-0.7,1.6-1,2.5
		c-0.3,0.8-0.4,1.7-0.4,2.6s0,1.7,0.3,2.5c0.2,0.6,0.5,1.1,1,1.6s1,0.8,1.6,1c0.7,0.2,1.4,0.2,2-0.1c0.6-0.3,1.2-0.6,1.7-1.1
		c0.7-0.7,1.3-1.4,1.8-2.2c0.5-0.8,1-1.7,1.4-2.5c0.2-0.3,0.4-0.7,0.5-1c0.1-0.4,0.3-0.7,0.5-1c-0.3,1.4-0.4,2.8-0.3,4.3
		c0.1,1.5,0.8,2.7,2.1,3.7c0.7,0.5,1.4,0.9,2.1,1c0.8,0.1,1.5,0.1,2.3,0c0.8-0.1,1.5-0.4,2.2-0.8c0.7-0.4,1.4-0.8,2.1-1.2
		c1.3-1.1,2.5-2.3,3.5-3.7c0.6-0.8,1.1-1.7,1.6-2.5c-0.1,0.5-0.1,1-0.1,1.6c0,1,0.3,1.9,0.7,2.8c0.4,0.8,1,1.5,1.6,2.1
		c0.7,0.5,1.5,0.9,2.4,1.2c0.9,0.2,1.9,0.3,2.9,0.2c1.2-0.2,2.2-0.6,3.2-1.3c0.9-0.7,1.8-1.4,2.7-2.2c0.9-0.8,1.7-1.7,2.4-2.7
		c0.2-0.2,0.3-0.5,0.5-0.7c0,0.3,0,0.5,0,0.8c0,1,0.3,1.9,0.7,2.8c0.4,0.8,1,1.5,1.6,2.1c0.7,0.5,1.5,0.9,2.4,1.2
		c0.9,0.2,1.9,0.3,2.9,0.2c1.2-0.2,2.2-0.6,3.2-1.3c0.9-0.7,1.8-1.4,2.7-2.2c0.9-0.8,1.7-1.7,2.4-2.7c0.7-1,1.3-2.1,1.6-3.3
		c0.3,0.3,0.6,0.5,1.1,0.7c0.5,0.3,1.1,0.4,1.7,0.4c-0.7,1.3-1.3,2.7-1.8,4c-0.5,1.4-0.8,2.8-1,4.4c-0.1,0.6-0.1,1.3,0,1.9
		c0.1,0.7,0.3,1.3,0.7,1.8c0.2,0.3,0.5,0.6,1,0.9s0.9,0.3,1.3,0.3c0.6-0.2,1.1-0.6,1.6-1.2c0.5-0.6,0.9-1.1,1.3-1.5
		c1.6-1.7,3.2-3.5,4.7-5.3c0.7-1,1.4-1.9,2.1-2.9c0.7-1,1.2-2,1.6-3.2C181.4,150.4,181.3,150.3,181.2,150.2z M153.7,148.7
		c0.4-0.6,0.8-1.1,1.2-1.6c0.2-0.2,0.5-0.5,1-0.9c0.5-0.4,1-0.8,1.6-1.1c0.5-0.3,1-0.5,1.5-0.5s0.7,0.2,0.7,0.8
		c0,0.8-0.2,1.6-0.9,2.4c-0.6,0.7-1.3,1.3-1.9,1.7c-1.2,0.8-2.6,1.1-4.2,1C153,149.9,153.3,149.3,153.7,148.7z M137.3,148.7
		c0.4-0.6,0.8-1.1,1.2-1.6c0.2-0.2,0.5-0.5,1-0.9c0.5-0.4,1-0.8,1.6-1.1c0.5-0.3,1-0.5,1.5-0.5s0.7,0.2,0.7,0.8
		c0,0.8-0.2,1.6-0.9,2.4c-0.6,0.7-1.3,1.3-1.9,1.7c-1.2,0.8-2.6,1.1-4.2,1C136.6,149.9,136.9,149.3,137.3,148.7z M122.1,144.3
		c0.3-0.8,0.6-1.6,1-2.4c0.6-1.3,1.2-2.7,1.9-3.9s1.4-2.5,2.1-3.8c0.8-1.3,1.6-2.5,2.5-3.8c0.9-1.3,1.9-2.4,3-3.3
		c0.3-0.2,0.5-0.4,0.8-0.6c0.3-0.2,0.5-0.4,0.8-0.6c0.1-0.1,0.3-0.2,0.6-0.4c0.3-0.2,0.5-0.2,0.8-0.1c0.1,0.1,0.2,0.2,0.3,0.4
		s0.1,0.4,0.1,0.5c0.1,0.6,0,1.3-0.1,2c-0.2,0.7-0.4,1.3-0.6,1.9c-0.4,1.2-0.8,2.4-1.4,3.5s-1.2,2.2-1.9,3.2c-1.4,2.1-3,3.9-4.8,5.5
		s-3.8,3-5.9,4.2C121.5,145.9,121.8,145.1,122.1,144.3z M118.9,146.6c-0.1,0.3-0.1,0.4-0.2,0.5c-0.1,0-0.2,0-0.3,0.1
		c-0.5,0.6-0.9,1.3-1.2,2.1c-0.3,0.8-0.6,1.6-1,2.3c-0.3,0.7-0.7,1.3-1,2c-0.3,0.7-0.7,1.3-1.1,2c-0.2,0.3-0.4,0.7-0.7,0.9
		c-0.3,0.3-0.5,0.6-0.9,0.9c-0.1,0.1-0.3,0.2-0.4,0.3c-0.1,0.1-0.3,0.2-0.4,0.3c-0.3,0.2-0.6,0.4-1,0.5c-0.4,0.1-0.7,0.1-1.1-0.1
		c-0.3-0.2-0.6-0.4-0.7-0.8c-0.1-0.4-0.2-0.8-0.2-1.3s0-0.9,0.1-1.4c0.1-0.4,0.1-0.8,0.2-1c0.3-1.5,0.7-2.9,1.5-4.3
		c0.7-1.4,1.7-2.5,2.9-3.5c0.5-0.5,1.1-0.9,1.8-1.2c0.7-0.4,1.4-0.5,2.1-0.5c0.7,0,1.2,0.3,1.4,0.8C118.9,145.5,119,146,118.9,146.6
		z M168.4,147.8c0.3-1.4,0.8-2.8,1.5-4.3c0.5-1.3,1.1-2.6,1.8-3.9c0.3-0.6,0.7-1.2,1.2-1.8c0.4-0.6,0.8-1.2,1.2-1.8v0.3
		c-0.1,0.4-0.2,0.8-0.3,1.2c-0.1,0.4-0.3,0.8-0.4,1.2c-0.5,1.4-1,2.7-1.5,3.9c-0.5,1-1.1,2-1.6,3c-0.6,1-1.2,1.9-1.9,2.9
		C168.3,148.2,168.4,148,168.4,147.8z"/>
	<g>
		<g>
			<path fill="#BE1E2D" d="M137.2,204.1c-8.5,3.4-2,14.4,5.3,11.3C150,212,145.1,201,137.2,204.1"/>
		</g>
		<g>
			<path fill="#BE1E2D" d="M128.6,215.4c-8.5,3.4-2,14.4,5.3,11.3C141.5,223.3,136.5,212.3,128.6,215.4"/>
		</g>
		<g>
			<path fill="#BE1E2D" d="M143.7,217.4c-8.5,3.4-2,14.4,5.3,11.3C156.5,225.3,151.6,214.2,143.7,217.4"/>
		</g>
	</g>
</g>
</svg>
