<?xml version="1.0" encoding="utf-8"?>
<!-- Generator: Adobe Illustrator 23.0.3, SVG Export Plug-In . SVG Version: 6.00 Build 0)  -->
<svg version="1.1" id="Layer_1" xmlns="http://www.w3.org/2000/svg" xmlns:xlink="http://www.w3.org/1999/xlink" x="0px" y="0px"
	 viewBox="0 0 288 288" enable-background="new 0 0 288 288" xml:space="preserve">
<g>
	<path fill="#BE1E2D" d="M263.3,153.9c0-0.8-0.2-1.6-0.7-2.2l-3-4.3c0,0-2.1-3-3.6-5.1c1.9-2.9,6.3-9.6,6.3-9.6
		c0.4-0.6,0.6-1.4,0.6-2.1c0-1-0.4-2.1-1.2-2.8c0,0-5.9-5.5-8.4-7.9c1.3-3.3,4.3-10.7,4.3-10.7l0.3-1.4c0-1.3-0.7-2.6-1.8-3.3
		l-9.8-6c0.6-3.4,2-11.4,2-11.4l0.1-0.7c0-1.6-1-3.1-2.6-3.6c0,0-7.6-2.7-10.8-3.9c-0.1-3.5-0.3-11.5-0.3-11.5
		c0-1.9-1.4-3.5-3.3-3.7c0,0-8-1.2-11.4-1.7c-0.8-3.4-2.6-11.2-2.6-11.2c-0.4-1.8-2.1-3.1-4-3l-6.8,0.4c0,0-2.5,0.1-4.7,0.3
		c-1.5-3.2-4.8-10.5-4.8-10.5c-0.8-1.7-2.7-2.6-4.5-2.1c0,0-7.8,2.1-11.1,3c-2.1-2.8-6.8-9.3-6.8-9.3c-1.1-1.5-3.2-2-4.8-1.2
		l-10.3,5.1c-2.8-2.5-8.6-7.7-8.6-7.7c-1.4-1.3-3.5-1.3-5-0.2c0,0-6.3,5-9.1,7.1c-3-1.8-9.9-5.8-9.9-5.8c-1.6-1-3.7-0.6-4.9,0.8
		c0,0-5.2,6.1-7.4,8.8c-3.3-1.1-10.9-3.7-10.9-3.7c-1.8-0.6-3.7,0.2-4.6,1.8l-4.2,7.7c0,0-0.7,1.2-1.3,2.4
		c-3.5-0.4-11.4-1.5-11.4-1.5c-1.9-0.2-3.6,0.9-4.2,2.7c0,0-2.4,7.7-3.4,11c-3.5,0.3-11.5,0.9-11.5,0.9c-1.9,0.1-3.4,1.6-3.6,3.5
		c0,0-0.8,8-1.1,11.5c-2,0.6-4.2,1.2-4.2,1.2l-6.9,2c-1.7,0.5-2.8,2-2.8,3.7l0,0.4c0,0,0.9,8,1.2,11.5c-3.1,1.6-10.2,5.3-10.2,5.3
		c-1.3,0.7-2.1,2-2.1,3.4l0.2,1.2c0,0,2.5,7.7,3.5,11c-2.7,2.2-8.9,7.3-8.9,7.3c-0.9,0.7-1.4,1.9-1.4,3c0,0.6,0.2,1.3,0.5,1.9
		l5.7,10c-2.2,2.7-7.3,8.9-7.3,8.9c-0.6,0.7-0.9,1.6-0.9,2.4c0,0.9,0.3,1.8,1,2.5c0,0,5.3,6.1,7.6,8.7c-1.6,3.1-5.3,10.2-5.3,10.2
		c-0.3,0.6-0.4,1.2-0.4,1.8c0,1.2,0.5,2.3,1.5,3.1c0,0,6.4,4.9,9.2,7c-1,3.4-3.2,11.1-3.2,11.1l-0.1,1.1c0,1.4,0.8,2.8,2.2,3.5
		l1.5,0.7h0c0,0,6,2.9,8.9,4.3c-0.3,3.5-0.9,11.5-0.9,11.5l0,0.3c0,1.7,1.2,3.3,2.9,3.7c0,0,7.8,2,11.2,2.8
		c0.4,3.5,1.5,11.4,1.5,11.4c0.2,1.9,1.8,3.3,3.7,3.4c0,0,8,0.4,11.5,0.5c1.1,3.3,3.7,10.9,3.7,10.9c0.6,1.8,2.4,2.9,4.3,2.6
		l0.6-0.1c0.1,0,7.4-1.2,10.7-1.7c1.8,3,5.8,9.9,5.8,9.9c1,1.6,2.9,2.3,4.7,1.6c0,0,7.5-2.8,10.8-4.1c2.3,2.6,7.7,8.6,7.7,8.6
		c1.3,1.4,3.3,1.7,4.9,0.7l4.8-3.1c0,0,2.8-1.8,4.9-3.1c2.8,2.1,9.3,6.8,9.3,6.8c1.5,1.1,3.6,1,5-0.3c0,0,5.8-5.6,8.3-8
		c3.2,1.5,10.5,4.8,10.5,4.8c1.7,0.8,3.7,0.2,4.8-1.3c0,0,4.5-6.6,6.5-9.5c3.4,0.8,11.2,2.6,11.2,2.6c1.8,0.4,3.7-0.5,4.4-2.3
		l1.2-2.9c0,0,2.1-4.9,3.2-7.7c3.5,0.1,11.5,0.3,11.5,0.3c1.9,0.1,3.5-1.3,3.9-3.1c0,0,1.6-7.9,2.2-11.3c3.4-0.6,11.3-2,11.3-2
		c1.8-0.3,3.2-1.9,3.2-3.8l-0.1-9.3c0-0.2,0-1.2,0-2.3c3.2-1.3,10.7-4.3,10.7-4.3c1.5-0.6,2.4-2,2.4-3.6l-0.1-0.8
		c0,0-1.7-7.9-2.4-11.3c2.9-1.9,9.6-6.4,9.6-6.4c1.1-0.7,1.7-2,1.7-3.2c0-0.5-0.1-1.1-0.3-1.5c0,0-3.2-7.4-4.6-10.6
		c2.5-2.5,8.2-8.2,8.2-8.2C262.9,155.9,263.3,154.9,263.3,153.9z M171.4,31.7l8.4,11.4l13.7-3.7l5.9,12.9l7.3-0.4
		c1.6,6.4,2.7,15.6-0.7,25c-4.5,12.5-10.1,21.5-12.7,25.3l0-1.2l-8-1.2l-1.8-7.8l-8,0.5l-3.4-7.3l-6,1.6c0.4-6.9,0.8-21.5-0.9-31.2
		c-0.9-5.2-3.6-11.7-6.4-17.6L171.4,31.7z M61.8,75.7l1.3-14.1l14.1-1.1L81.4,47l14.1,1.8l2.6-4.7c6.1,2,13.8,5.6,19.6,12.6
		c8.3,9.9,13.3,19.1,15.4,23.3l-5.1,6l-7.6-2.6l-3.9,7.1l-8-1l-2.1,6.8c-5.7-3.7-18.3-11.5-27.7-14.9C72.4,78.9,62.9,78,55,77.6
		L61.8,75.7z M57.9,168.9c-6.4,5.4-13.4,16.1-17.8,23.3l-1.5-0.7l3.9-13.6l-11.3-8.6l6.6-12.6L28.5,146l9-11l-1.3-2.3
		c4.7-4.1,11.4-8.4,19.7-9.9c12.8-2.3,23.3-2,28-1.7l1.9,6l-6.2,5.1l4,7l-5.1,6.2l5.3,6.1l-0.8,1.6C76.4,156.6,64.9,163,57.9,168.9z
		 M128.6,258.7l-9.5-10.5l-13.3,5L98.6,241l-13.4,2.1l-0.5-0.3c0,0-8.2-16.5-2.2-33.3c4.6-12.7,10.3-21.9,12.8-25.5l3.3,0.8l1,8
		l8,0.3l2.6,7.6l7.9-1.3l3.9,6.6c-0.2,7.5-0.1,17.5,1.2,24.8c1.4,7.5,6.2,17.5,10.1,24.8L128.6,258.7z M151.7,201.7
		c0,0-1.8,1.7-3.4,3.3c-1.9-1.4-3.9-2.8-3.9-2.8c-1.3-0.9-3-1-4.3-0.1c0,0-2.1,1.3-4,2.6c-1.6-1.7-3.2-3.5-3.2-3.5
		c-1.1-1.2-2.7-1.6-4.2-1c0,0-2.5,0.9-4.5,1.7l-2.4-4.1c-0.8-1.4-2.4-2.1-3.9-1.9c0,0-2.5,0.4-4.7,0.8c-0.8-2.2-1.5-4.5-1.5-4.5
		c-0.5-1.5-1.9-2.5-3.5-2.6c0,0-2.5-0.1-4.8-0.2c-0.3-2.3-0.6-4.8-0.6-4.8c-0.2-1.6-1.3-2.9-2.9-3.3l-3.3-0.8
		c-0.1,0-0.8-0.2-1.3-0.3c0.2-2.3,0.4-4.8,0.4-4.8l0-0.3c0-1.5-0.8-2.8-2.2-3.5c0,0-2.2-1.1-4.3-2.1c0.6-2.2,1.3-4.6,1.3-4.6
		l0.1-1.1c0-1.2-0.5-2.3-1.5-3.1c0,0-2-1.5-3.8-2.9c0.7-1.3,1.4-2.6,1.4-2.6l0.8-1.6c0.3-0.6,0.4-1.2,0.4-1.8c0-0.9-0.3-1.8-1-2.5
		c0,0-1.6-1.9-3.2-3.6c1.5-1.8,3-3.7,3-3.7c0.6-0.7,0.9-1.6,0.9-2.4c0-0.6-0.2-1.3-0.5-1.9c0,0-1.2-2.2-2.4-4.2c1.8-1.5,3.7-3,3.7-3
		c0.9-0.7,1.4-1.9,1.4-3l-0.2-1.2l-1.5-4.6c2-1.1,4.3-2.2,4.3-2.2c1.3-0.7,2.1-2,2.1-3.4l0-0.4c0,0-0.3-2.5-0.5-4.8
		c2.2-0.6,4.6-1.3,4.6-1.3c1.5-0.4,2.6-1.8,2.8-3.3c0,0,0.2-2.5,0.5-4.8c2.3-0.2,4.8-0.4,4.8-0.4c1.6-0.1,2.9-1.2,3.4-2.7l0.3-0.9
		c0,0,0.6-1.8,1.1-3.7c2.3,0.3,4.7,0.6,4.7,0.6c1.6,0.2,3.1-0.6,3.9-2c0,0,1.2-2.2,2.3-4.2c2.2,0.8,4.5,1.6,4.5,1.6
		c1.5,0.5,3.2,0.1,4.2-1.2l3.1-3.7c1.8,1.1,4.1,2.4,4.1,2.4c1.4,0.8,3.1,0.7,4.4-0.3c0,0,1.9-1.5,3.8-3c1.7,1.5,3.6,3.2,3.6,3.2
		c1.2,1.1,2.9,1.3,4.3,0.6c0,0,2.2-1.1,4.3-2.1c1.4,1.9,2.8,3.9,2.8,3.9c0.9,1.3,2.6,1.9,4.1,1.4l1.8-0.5h0c0,0,1.4-0.4,2.8-0.8
		c1,2.1,2,4.3,2,4.3c0.7,1.4,2.1,2.3,3.7,2.2c0,0,2.5-0.1,4.8-0.3c0.5,2.3,1.1,4.7,1.1,4.7c0.4,1.6,1.6,2.7,3.2,3
		c0,0,2.5,0.4,4.7,0.7c0.1,2,0.1,4.8,0.1,4.8c0,1.6,1,3,2.5,3.5c0,0,2.3,0.8,4.5,1.6c-0.4,2.3-0.8,4.7-0.8,4.7l-0.1,0.7
		c0,1.3,0.7,2.6,1.8,3.3c0,0,2.1,1.3,4.1,2.5c-0.9,2.1-1.8,4.5-1.8,4.5c-0.2,0.5-0.3,0.9-0.3,1.4c0,1,0.4,2.1,1.2,2.8l2,1.9l0,0
		c0,0,0.8,0.7,1.5,1.4c-1.3,1.9-2.6,4-2.6,4c-0.4,0.6-0.6,1.4-0.6,2.1c0,0.8,0.2,1.6,0.7,2.2c0,0,1.4,2,2.8,3.9
		c-1.6,1.6-3.4,3.4-3.4,3.4c-0.7,0.7-1.1,1.7-1.1,2.7c0,0.5,0.1,1,0.3,1.5c0,0,1,2.3,1.9,4.4l-0.3,0.2h0l-3.7,2.5
		c-1.1,0.7-1.7,2-1.7,3.2l0.1,0.8c0,0,0.5,2.4,1,4.7c-2.1,0.9-4.4,1.8-4.4,1.8c-1.5,0.6-2.4,2-2.4,3.6c0,0,0,2.5,0,4.8
		c-2.3,0.4-4.7,0.8-4.7,0.8c-1.6,0.3-2.8,1.5-3.1,3.1l-0.9,4.7c-2.3-0.1-4.8-0.1-4.8-0.1c-1.6,0-3,0.9-3.7,2.4c0,0-1,2.3-1.9,4.4
		c-2.2-0.5-4.7-1.1-4.7-1.1c-1.5-0.4-3.2,0.3-4.1,1.6c0,0-1.4,2-2.7,3.9c-2-0.9-4.2-1.9-4.2-1.9h0l-0.2-0.1
		C154.5,200.3,152.8,200.6,151.7,201.7z M219.2,220.5l-2.7,13.9l-14.2-0.4l-4.3,10.1c-5.6-0.9-18.4-4-27.2-14.4
		c-10.1-11.9-15.2-22.8-16.3-25.3l7.1,3.3l4.6-6.6l7.8,1.8l3.1-7.4l8,0.2l0.6-3.1c6.4,4,16.2,9.8,23.9,12.5
		c6.3,2.3,15.6,3.2,23.4,3.6l0.1,9.3L219.2,220.5z M232.6,163.4c-13.2,2.4-24,2-28.4,1.7l3-2l-3.2-7.4l5.7-5.7l-4.6-6.6l4.4-6.7
		l-3.9-3.6c6.5-3.4,18.2-9.8,25.2-15.7c4.5-3.8,9.2-10.1,13.2-16l10.1,6.2l-5.3,13.2l10.3,9.7l-7.8,11.8l5.2,7.3
		C252,154.4,243.8,161.4,232.6,163.4z"/>
	<g>
		<path d="M118.9,162c-2.3,0-4.2-0.7-5.9-2c-0.4-0.3-0.8-0.7-1.1-1c-0.2-0.2-0.2-0.5-0.2-0.8c0-0.6,0.2-1,0.7-1.2c0.1,0,0.2,0,0.2,0
			c0.3,0,0.5,0.2,0.7,0.4c0.6,0.8,1.8,1.6,3.5,2.3c1,0.4,1.9,0.6,2.7,0.6c2.3-0.1,3.4-1.6,3.4-4.6c0-1.5-0.9-2.9-2.7-4.3
			c-0.4-0.3-1-0.7-1.9-1.3c-2.1-1.4-3.5-2.6-4.3-3.5c-1-1.3-1.6-2.9-1.6-4.5c0-2.3,0.9-4.2,2.6-5.5c1.3-1,2.9-1.5,4.8-1.5
			c1.7,0,3,0.8,4.2,2.4c0.4,0.6,0.7,1.3,0.9,2c0.1,0.2,0.1,0.3,0.1,0.5c0,0.6-0.2,1-0.7,1.2c-0.1,0-0.2,0-0.3,0
			c-0.4,0-0.7-0.3-0.9-0.7c-0.3-1.7-1.2-2.7-2.5-3.2c-0.3-0.1-0.6-0.2-0.9-0.2c-1.7,0-2.9,0.6-3.6,1.8c-0.4,0.6-0.5,1.3-0.5,2.1
			c0,1.8,0.9,3.4,2.8,4.8c0.4,0.3,1.1,0.8,2,1.4c2,1.3,3.4,2.4,4.1,3.3c1,1.3,1.6,2.9,1.6,4.7c0,2.6-0.9,4.6-2.8,5.8
			C122,161.6,120.6,162,118.9,162z"/>
		<path d="M143.7,136.4c0,0.6-0.2,1-0.7,1.2c-0.1,0-0.2,0-0.3,0c-0.2,0-0.5,0-1,0c-0.4,0-0.8,0-1,0c-1.8,0-3.1,0-3.9,0
			c-0.5,7-0.7,11.9-0.7,14.6c0,3.3,0.2,6.1,0.5,8.3c0,0.1,0,0.2,0,0.3c0,0.5-0.4,0.9-1.2,1.1c-0.2,0.1-0.5,0.1-0.7,0.1
			c-1,0-1.5-0.3-1.6-0.9c-0.6-5.3-0.9-9.8-0.9-13.4c0-3.8,0.3-7,0.8-9.8c-1.4,0.1-3.2,0.3-5.4,0.5h-0.1c-0.4,0-0.7-0.3-0.9-0.8
			c-0.1-0.2-0.1-0.3-0.1-0.4c0-0.6,0.2-1,0.7-1.2c0.1,0,0.2,0,0.2,0c0.9-0.1,2-0.1,3.6-0.3c3.8-0.3,7-0.5,9.7-0.5c0.1,0,0.3,0,0.5,0
			c0.3,0,0.5,0,0.6,0C143,135.2,143.6,135.6,143.7,136.4z"/>
		<path d="M143.1,150.1c0-9.3,2.3-14.4,7-15.2c0.4-0.1,0.9-0.1,1.3-0.1c0.9,0,1.5,0.3,1.6,0.9c0,0.1,0,0.1,0,0.2
			c0,0.1,0,0.2-0.1,0.3c0.6-0.4,1.4-0.7,2.2-0.7c1.8,0,3,2.1,3.5,6.4c0.1,1.3,0.2,2.6,0.2,4.1c0,5.6-1.2,9.8-3.6,12.8
			c-1.6,1.9-3.3,2.8-5.2,2.8c-2.1,0-3.8-1.1-5.1-3.4C143.7,156.3,143.1,153.5,143.1,150.1z M156.7,146.4c-1-0.5-2-1.5-3-2.9
			c-1.2-1.7-1.9-3.3-1.9-4.9c0-0.5,0.1-1,0.4-1.5c-0.3,0.1-0.6,0.2-0.9,0.2c-2.7,0-4.2,2.8-4.7,8.4c-0.1,1.5-0.2,3.5-0.2,6
			c0,3.6,0.8,6,2.4,7.2c0.5,0.4,1.1,0.6,1.7,0.6c1.5,0,2.8-1,4-3c1.3-2.4,2-5.5,2-9.3V146.4z M156.5,143.4c-0.4-3.5-1.2-5.3-2.4-5.3
			c-0.2,0.1-0.4,0.4-0.4,0.8C153.7,140.1,154.6,141.6,156.5,143.4z"/>
		<path d="M165.2,138c1.6-1.7,3.3-2.6,5.2-2.9c0.2,0,0.4,0,0.6,0c2.4,0,4,1.2,4.8,3.6c0.3,0.9,0.5,2,0.5,3.1c0,2.7-0.9,5.2-2.7,7.5
			c-2.3,2.7-5,4.1-8.2,4.2c-0.4,0-0.7,0-1,0v0.8c0,2.9,0.2,5.1,0.7,6.4c0,0.1,0,0.2,0,0.3c0,0.5-0.4,0.9-1.2,1.1
			c-0.2,0.1-0.5,0.1-0.7,0.1c-1,0-1.5-0.3-1.6-0.9c-0.4-3.5-0.6-7.3-0.6-11.3v-3.2c0-4.4,0.3-7.7,0.8-10c0.3-0.6,0.9-0.9,1.7-1
			c0.9,0,1.5,0.3,1.7,0.9c0.1,0.1,0.1,0.3,0.1,0.4v0.1C165.3,137.2,165.3,137.6,165.2,138z M165,141.8c-0.3,4.1-0.5,7.3-0.5,9.6
			c0.3,0,0.6,0,1,0c2.9,0,5.1-1.2,6.6-3.5c0.9-1.4,1.4-2.9,1.4-4.6c0-2.5-0.6-4.2-1.9-5.2c-0.6-0.5-1.3-0.7-2.1-0.7
			c-1.1,0-2.2,0.6-3.2,1.9C165.6,140.2,165.2,141,165,141.8z"/>
	</g>
	<g>
		<g>
			<path d="M119.6,122.8c-1.7,0-3.1-0.5-4.3-1.5c-0.3-0.2-0.6-0.5-0.8-0.8c-0.1-0.2-0.2-0.3-0.2-0.6c0-0.5,0.2-0.8,0.5-0.9
				c0.1,0,0.1,0,0.2,0c0.2,0,0.4,0.1,0.5,0.3c0.5,0.6,1.3,1.2,2.6,1.7c0.8,0.3,1.4,0.4,2,0.4c1.7,0,2.5-1.2,2.5-3.4
				c0-1.1-0.7-2.2-2-3.1c-0.3-0.2-0.8-0.5-1.4-1c-1.5-1-2.6-1.9-3.2-2.6c-0.8-1-1.1-2.1-1.1-3.3c0-1.7,0.6-3.1,1.9-4.1
				c1-0.7,2.1-1.1,3.5-1.1c1.2,0,2.2,0.6,3.1,1.7c0.3,0.5,0.5,0.9,0.7,1.5c0.1,0.1,0.1,0.2,0.1,0.4c0,0.4-0.2,0.7-0.5,0.9
				c-0.1,0-0.1,0-0.2,0c-0.3,0-0.5-0.2-0.7-0.5c-0.2-1.2-0.9-2-1.8-2.3c-0.2-0.1-0.5-0.1-0.7-0.1c-1.2,0-2.1,0.4-2.7,1.3
				c-0.3,0.5-0.4,1-0.4,1.5c0,1.3,0.7,2.5,2,3.5c0.3,0.2,0.8,0.6,1.5,1c1.5,1,2.5,1.8,3,2.5c0.8,1,1.1,2.1,1.1,3.5
				c0,1.9-0.7,3.3-2.1,4.3C121.9,122.5,120.9,122.8,119.6,122.8z"/>
			<path d="M125.4,117c0-0.4,0.2-0.7,0.5-0.9c0.1,0,0.1,0,0.2,0h0.3c0.6-4.6,1.7-8.2,3.1-10.7c1-1.7,2-2.5,3.1-2.6
				c2.4,0,3.8,4.2,4.3,12.5c0.1,2,0.2,4.3,0.2,6.7c-0.1,0.4-0.5,0.7-1.1,0.7c-0.7,0-1.2-0.2-1.5-0.7c-0.1-0.1-0.1-0.2-0.1-0.3
				c0-0.3,0-1.1-0.1-2.2c0-1,0-1.7-0.1-2.2c-0.4,0-1,0.1-1.8,0.2c-1.9,0.2-3.6,0.4-4.9,0.4c-0.1,1.2-0.1,2.3-0.1,3.3
				c0,0.8-0.2,1.2-0.7,1.4c-0.1,0-0.1,0-0.2,0c-0.4-0.1-0.6-0.3-0.6-0.7c0-0.9,0.1-2.2,0.2-4C125.7,117.8,125.4,117.5,125.4,117z
				 M127.9,116.2c0.9,0,2.6-0.2,5.1-0.4c0.5-0.1,1-0.1,1.4-0.1c-0.2-6.8-1-10.3-2.3-10.3c-1,0-1.9,1.4-2.8,4.3
				C128.7,111.5,128.2,113.7,127.9,116.2z"/>
			<path d="M149.2,122.8c-0.7,0-1.2-0.2-1.5-0.7c-0.1-0.1-0.1-0.2-0.1-0.3c0-0.1,0-0.4,0.1-0.9c0.1-2.8,0.2-5.1,0.2-7
				c0-5.6-0.6-8.4-1.8-8.4c-0.7,0-1.5,1.5-2.4,4.6c-1.1,3.6-1.7,6.9-1.9,10.1c0,0.4,0,0.8,0,1.1v0.3c0,0.2,0.1,0.3,0.1,0.5
				c0,0.4-0.3,0.7-0.9,0.8c-0.2,0-0.3,0.1-0.5,0.1c-0.7,0-1.1-0.2-1.2-0.7c-0.4-3.7-0.6-7-0.6-9.9c0-3.3,0.2-6,0.7-8.1
				c0.2-0.4,0.6-0.7,1.3-0.8c0.7,0,1.1,0.2,1.3,0.6c0,0.1,0.1,0.2,0.1,0.3v0.1v0c-0.3,3.8-0.4,6.7-0.5,8.7c1-4.2,2.2-7.2,3.6-9
				c0.7-0.8,1.3-1.3,1.9-1.3c2.3,0,3.4,3.9,3.4,11.5c0,1.2,0,2.9-0.1,5.1c0,1.3-0.1,2.1-0.1,2.5
				C150.2,122.5,149.8,122.7,149.2,122.8z"/>
			<path d="M163.8,104c0,0.4-0.2,0.7-0.5,0.9c-0.1,0-0.1,0-0.2,0c-0.2,0-0.4,0-0.7,0s-0.6,0-0.7,0c-1.3,0-2.3,0-2.9,0
				c-0.3,5.1-0.5,8.7-0.5,10.7c0,2.5,0.1,4.5,0.4,6.1c0,0.1,0,0.2,0,0.2c0,0.4-0.3,0.7-0.9,0.8c-0.2,0-0.3,0.1-0.5,0.1
				c-0.7,0-1.1-0.2-1.2-0.7c-0.4-3.9-0.6-7.2-0.6-9.9c0-2.8,0.2-5.2,0.6-7.2c-1,0.1-2.3,0.2-4,0.3h-0.1c-0.3,0-0.5-0.2-0.7-0.6
				c0-0.1-0.1-0.2-0.1-0.3c0-0.4,0.2-0.7,0.5-0.9c0.1,0,0.1,0,0.2,0c0.6,0,1.5-0.1,2.6-0.2c2.8-0.2,5.2-0.4,7.1-0.4
				c0.1,0,0.2,0,0.4,0c0.2,0,0.4,0,0.5,0C163.3,103.1,163.8,103.4,163.8,104z"/>
			<path d="M162,117c0-0.4,0.2-0.7,0.5-0.9c0.1,0,0.1,0,0.2,0h0.3c0.6-4.6,1.7-8.2,3.1-10.7c1-1.7,2-2.5,3.1-2.6
				c2.4,0,3.8,4.2,4.3,12.5c0.1,2,0.2,4.3,0.2,6.7c-0.1,0.4-0.5,0.7-1.1,0.7c-0.7,0-1.2-0.2-1.5-0.7c-0.1-0.1-0.1-0.2-0.1-0.3
				c0-0.3,0-1.1-0.1-2.2c0-1,0-1.7-0.1-2.2c-0.4,0-1,0.1-1.8,0.2c-1.9,0.2-3.6,0.4-4.9,0.4c-0.1,1.2-0.1,2.3-0.1,3.3
				c0,0.8-0.2,1.2-0.7,1.4c-0.1,0-0.1,0-0.2,0c-0.4-0.1-0.6-0.3-0.6-0.7c0-0.9,0.1-2.2,0.2-4C162.3,117.8,162,117.5,162,117z
				 M164.4,116.2c0.9,0,2.6-0.2,5.1-0.4c0.5-0.1,1-0.1,1.4-0.1c-0.2-6.8-1-10.3-2.3-10.3c-1,0-1.9,1.4-2.8,4.3
				C165.2,111.5,164.8,113.7,164.4,116.2z"/>
		</g>
		<g>
			<g>
				<path d="M130.7,172.8c-0.4,3.7-0.6,6.4-0.6,8.2v1.5c0.6,0.1,1,0.4,1,0.9c0,0.4-0.2,0.7-0.5,0.9c-0.1,0-0.1,0-0.2,0h-0.3
					c0,2.4,0.2,4.3,0.4,5.7c0,0.1,0,0.2,0,0.2c0,0.4-0.2,0.7-0.6,0.9c-0.1,0-0.2,0-0.2,0c-0.3,0-0.5-0.2-0.6-0.6c0,0,0,0,0-0.1
					c-0.3-2.5-0.5-4.5-0.6-6.2c-0.9,0-2.7,0.2-5.2,0.4c-0.1,0-0.1,0-0.2,0c0,2.3,0.2,4,0.4,5.3c0,0.1,0,0.2,0,0.2
					c0,0.4-0.3,0.7-0.9,0.8c-0.2,0-0.3,0.1-0.5,0.1c-0.7,0-1.1-0.2-1.2-0.7c-0.4-3.7-0.6-7-0.6-9.9c0-3.3,0.2-6,0.7-8.1
					c0.2-0.4,0.6-0.7,1.3-0.8c0.7,0,1.1,0.2,1.3,0.6c0,0.1,0.1,0.2,0.1,0.3v0.1v0c-0.3,4.2-0.5,7.6-0.5,10.2
					c2.6-0.3,4.4-0.4,5.3-0.5c0-0.2,0-0.4,0-0.7c0-0.3,0-0.6,0-0.7c0-2.7,0.3-5.5,0.9-8.5c0.1-0.4,0.4-0.7,0.7-0.8
					c0.4,0,0.6,0.2,0.7,0.7c0,0.1,0,0.2,0,0.3V172.8L130.7,172.8z"/>
				<path d="M134.6,191.2h-0.2c-0.7,0-1.1-0.2-1.2-0.7c-0.4-3.7-0.6-7-0.6-9.9c0-3.3,0.2-6,0.7-8.1c0.1-0.5,0.6-0.8,1.3-0.8
					c1.5,0,3.9,0.2,7.1,0.5c0.3,0,0.5,0.1,0.7,0.1c0.3,0,0.5,0.2,0.6,0.6c0,0.1,0.1,0.2,0.1,0.3c0,0.4-0.2,0.7-0.5,0.9
					c-0.1,0-0.1,0-0.2,0h-0.1c-0.5-0.1-1.2-0.1-2.1-0.2c-1.8-0.2-3.3-0.3-4.4-0.3c-0.2,2.9-0.4,5.6-0.4,8.3c0.6,0,1.8-0.2,3.6-0.5
					c0.2,0,0.4-0.1,0.5-0.1h0.1c0.3,0,0.6,0.2,0.7,0.6c0,0.1,0.1,0.2,0.1,0.3c0,0.4-0.2,0.7-0.5,0.9c-0.1,0-0.1,0.1-0.2,0.1
					c-0.3,0.1-0.8,0.1-1.4,0.2c-1.2,0.2-2.2,0.3-2.9,0.3v0.3c0,2.1,0.1,3.9,0.3,5.4h0.1c1.1,0,2.9-0.2,5.3-0.5
					c0.5-0.1,1-0.1,1.4-0.1h0.1c0.3,0,0.5,0.2,0.7,0.6c0,0.1,0,0.2,0,0.3c0,0.4-0.2,0.7-0.5,0.9c-0.1,0-0.1,0-0.1,0
					c-3,0.3-4.7,0.5-4.9,0.5c-0.6,0-1.3,0.1-2,0.1c-0.1,0-0.2,0-0.4,0c-0.2,0-0.3,0-0.4,0H134.6z"/>
				<path d="M147.4,173.5c1.2-1.2,2.4-1.9,3.8-2.1c0.2,0,0.3,0,0.5,0c2.1,0,3.4,0.9,3.9,2.6c0.1,0.4,0.2,0.9,0.2,1.4
					c0,1.7-0.7,3.5-2,5.3c-1.5,2-3.3,3.2-5.4,3.6c-0.2,0-0.4,0.1-0.6,0.1c1.2,1.8,2.4,3.2,3.6,4.1c1,0.7,2,1.2,3.1,1.6
					c0.3,0.2,0.5,0.4,0.6,0.7c0,0.3-0.2,0.5-0.5,0.6c-0.1,0-0.2,0-0.2,0c-0.2,0-0.3,0-0.4-0.1c-2.5-0.8-4.6-2.3-6.4-4.4
					c-0.2-0.3-0.5-0.6-0.7-0.9c0,1.8,0.2,3.1,0.5,4.1c0,0.1,0,0.2,0,0.2c0,0.4-0.3,0.7-0.9,0.8c-0.2,0-0.3,0.1-0.5,0.1
					c-0.7,0-1.1-0.2-1.2-0.7c-0.3-2.6-0.4-5.4-0.4-8.3v-2.3c0-3.2,0.2-5.7,0.6-7.4c0.2-0.4,0.6-0.7,1.3-0.8c0.7,0,1.1,0.2,1.3,0.6
					c0,0.1,0.1,0.2,0.1,0.3v0.1C147.5,173,147.4,173.3,147.4,173.5z M147.2,176.5c-0.2,2.5-0.3,4.6-0.3,6.3c0.2,0,0.4,0,0.7,0
					c1.8,0,3.3-0.8,4.5-2.4c0.9-1.2,1.3-2.4,1.3-3.7c0-1.8-0.6-2.9-1.8-3.3c-0.4-0.1-0.8-0.2-1.2-0.2c-0.8,0-1.6,0.5-2.3,1.5
					C147.7,175.2,147.4,175.8,147.2,176.5z"/>
				<path d="M159,191.2h-0.2c-0.7,0-1.1-0.2-1.2-0.7c-0.4-3.7-0.6-7-0.6-9.9c0-3.3,0.2-6,0.7-8.1c0.1-0.5,0.6-0.8,1.3-0.8
					c1.5,0,3.9,0.2,7.1,0.5c0.3,0,0.5,0.1,0.7,0.1c0.3,0,0.5,0.2,0.6,0.6c0,0.1,0.1,0.2,0.1,0.3c0,0.4-0.2,0.7-0.5,0.9
					c-0.1,0-0.1,0-0.2,0h-0.1c-0.5-0.1-1.2-0.1-2.1-0.2c-1.8-0.2-3.3-0.3-4.4-0.3c-0.2,2.9-0.4,5.6-0.4,8.3c0.6,0,1.8-0.2,3.6-0.5
					c0.2,0,0.4-0.1,0.5-0.1h0.1c0.3,0,0.6,0.2,0.7,0.6c0,0.1,0.1,0.2,0.1,0.3c0,0.4-0.2,0.7-0.5,0.9c-0.1,0-0.1,0.1-0.2,0.1
					c-0.3,0.1-0.8,0.1-1.4,0.2c-1.2,0.2-2.2,0.3-2.9,0.3v0.3c0,2.1,0.1,3.9,0.3,5.4h0.1c1.1,0,2.9-0.2,5.3-0.5
					c0.5-0.1,1-0.1,1.4-0.1h0.1c0.3,0,0.5,0.2,0.7,0.6c0,0.1,0,0.2,0,0.3c0,0.4-0.2,0.7-0.5,0.9c-0.1,0-0.1,0-0.1,0
					c-3,0.3-4.7,0.5-4.9,0.5c-0.6,0-1.3,0.1-2,0.1c-0.1,0-0.2,0-0.4,0c-0.2,0-0.3,0-0.4,0H159z"/>
			</g>
		</g>
	</g>
</g>
</svg>
