<?xml version="1.0" encoding="utf-8"?>
<!-- Generator: Adobe Illustrator 23.0.3, SVG Export Plug-In . SVG Version: 6.00 Build 0)  -->
<svg version="1.1" id="Layer_1" xmlns="http://www.w3.org/2000/svg" xmlns:xlink="http://www.w3.org/1999/xlink" x="0px" y="0px"
	 viewBox="0 0 288 288" enable-background="new 0 0 288 288" xml:space="preserve">
<g>
	<g>
		<g>
			<path fill="#BE1E2D" d="M103.1,115.7l-0.6,11.4c19.5-9.7,32.6-25,38.6-33.3h-6.2c-9.6,1.6-17.2,2.6-23.2,2.8
				c-9.4,8.1-16.3,13.4-19.7,15.9L103.1,115.7z"/>
			<path fill="#BE1E2D" d="M154.3,103.1c7.1,7.9,17.5,17.3,31,24l-0.6-11.4l11.4-3.2c-3.1-2.6-9.5-7.9-18.5-15.9
				c-6.2-0.1-14.3-1.1-24.7-2.8h-6.2C148.6,96.4,151.2,99.6,154.3,103.1z"/>
			<path fill="#BE1E2D" d="M100.5,74.8l0,0.5c-0.1,2.9-1.2,4.9-2,6.4c-0.8,1.5-1.5,2.6-1.5,4.9c0,0.6,0.1,1.4,0.2,2.3l0,0.1l0-0.1
				c0.7-1.2,2.2-2.4,4.4-2.8c2.6-0.6,5.6-1,9-1c6.8,0,15,1.5,23.6,5.8V74.7c-0.6-0.8-1.5-1.9-2.6-3.1c-2.7-2.9-6.9-6.4-12.9-9
				c-5-2.2-11.3-4-15.5-4c-1.6,0-2.7,0.3-3.5,0.8c-1.4,0.9-2,2.9-1.9,3.9c0.1,1.7,0.6,3.1,1.2,4.9C99.8,70,100.5,72.1,100.5,74.8z"
				/>
			<path fill="#BE1E2D" d="M99.8,90.4c-0.5,0.9,0.2,1.8,0.6,2.1c2,1.1,4.7,1.3,8.8,1.3c5,0,11.7-0.7,20-2
				c-6.8-2.8-13.2-3.8-18.6-3.8c-3.1,0-6,0.4-8.3,0.9C100.8,89.2,100.1,89.8,99.8,90.4z"/>
			<path fill="#BE1E2D" d="M153.5,74.7v16.1c8.6-4.3,16.8-5.8,23.6-5.8c3.4,0,6.4,0.4,9,1c2.2,0.5,3.6,1.6,4.4,2.8l0,0.1l0-0.1
				c0.1-0.9,0.2-1.6,0.2-2.3c0-2.3-0.6-3.4-1.5-4.9c-0.8-1.5-1.9-3.4-2-6.3l0-0.5c0-2.7,0.8-4.7,1.4-6.5c0.7-1.8,1.2-3.2,1.2-4.9
				c0-0.7,0.1-2.7-1.9-3.9c-0.8-0.5-2.2-0.6-3.8-0.6c-4.2,0-10.3,1.6-15.3,3.8C160.5,66.3,155.6,71.8,153.5,74.7z"/>
			<path fill="#BE1E2D" d="M178.6,93.7c4.6,0.1,7.6-0.3,8.8-1.2c0.5-0.4,1-1.4,0.6-2.2c-0.3-0.6-1-1.2-2.5-1.5
				c-2.3-0.5-5.1-0.9-8.3-0.9c-5.4,0-11.8,1-18.6,3.8C166.9,93.1,173.5,93.6,178.6,93.7z"/>
			<rect x="137.2" y="74.8" fill="#BE1E2D" width="13.4" height="16.2"/>
			<path fill="#DDB467" d="M115.1,129.5L115.1,129.5c4.9,0,10.2,1.5,15.6,4.3c3.8,1.9,7.1,4.1,9.8,6.6c-0.9-3.6-2.1-7.6-4-13.3
				c-0.6-1.9-0.9-3.7-0.9-5.3c0-5,2.5-8.2,4.5-10.1l-0.2-0.1c-0.9-0.3-2.3-0.6-3.8-0.6c-2.6,0-5.8,0.9-9,4.8
				C122.1,122.1,118.9,126.1,115.1,129.5z"/>
			<path fill="#010101" d="M142.6,159.9L142.6,159.9L142.6,159.9z"/>
			<path fill="#DDB467" d="M141.6,146c-2.6-3.7-6.7-6.9-12.1-9.6c-5.2-2.6-10-4-14.3-4c-1.6,0-3.1,0.2-4.5,0.6l-4.7,5.5
				c1.4-0.4,2.9-0.6,4.6-0.6c4.7,0,10.4,1.5,16.1,4.3c4.7,2.3,8.6,5.2,11.4,8.2c1.8,2,3.2,4,4,6.1l0.8-3.5
				C142.7,153,141.6,146.7,141.6,146z"/>
			<path fill="#DDB467" d="M102.7,139.9"/>
			<path fill="#DDB467" d="M125.2,144.8c-5.4-2.7-10.7-4-14.8-4c-3.7,0-6,1.1-6.7,2.6c-0.2,0.5-0.4,1-0.4,1.6c0,1.8,1.3,4.5,3.8,7.2
				c2.5,2.7,6.2,5.4,10.5,7.6c2.8,1.4,5.7,2.5,8.3,3.1c-0.9-1.1-1.1-2.7-0.4-4c0.9-1.9,3.2-2.6,5.1-1.7c1.9,0.9,2.6,3.2,1.7,5.1
				c-0.3,0.6-0.8,1.1-1.3,1.5c0.5,0,1,0.1,1.4,0.1c3.7,0,6-1.1,6.7-2.6h0c0.2-0.5,0.3-1,0.4-1.6c0-1.8-1.3-4.5-3.8-7.2
				C133.3,149.7,129.6,147,125.2,144.8z"/>
			<path fill="#DDB467" d="M158.7,114.9c-3.1-3.3-6.1-4.2-8.6-4.2c-2.5,0-4.6,0.9-5.4,1.4l-0.4,0.2l-0.1,0.1l-0.1,0l-0.2,0.1
				l-0.6,0.4c-0.5,0.4-1.2,0.9-1.9,1.7c-1.4,1.6-2.8,3.8-2.8,7.2c0,1.3,0.2,2.8,0.7,4.4c2.5,7.8,4.1,12.6,4.9,17.7
				c2.7-4.1,6.9-7.7,12.1-10.8c5.3-3.1,10.4-4.9,15.4-5.3C167.7,124.6,164.3,120.9,158.7,114.9z"/>
			<path fill="#010101" d="M184.7,137.4L184.7,137.4L184.7,137.4z"/>
			<path fill="#DDB467" d="M173.1,130.7c-4.6,0-9.8,1.7-15.3,4.9c-6.8,4-11.4,8.7-13.1,13.9l2.1,7c1.5-5.2,6.9-10.9,14.4-15.3
				c6-3.5,12.2-5.4,17.1-5.4c1.2,0,2.3,0.1,3.3,0.4l-5.1-5.2C175.3,130.8,174.2,130.7,173.1,130.7z"/>
			<path fill="#010101" d="M146.2,159.9L146.2,159.9L146.2,159.9z"/>
			<path fill="#DDB467" d="M171,158.2c8.3-4.7,13.5-11.6,13.4-15.4c0-0.7-0.2-1.3-0.5-1.8c-0.7-1.3-2.7-2.2-5.8-2.2
				c-4.1,0-9.9,1.7-15.6,5c-8.3,4.7-13.5,11.6-13.4,15.4c0,0.7,0.2,1.3,0.5,1.8c0.7,1.3,2.7,2.2,5.8,2.2c0.8,0,1.6-0.1,2.5-0.2
				c-0.6-0.3-1-0.8-1.4-1.4c-1.1-1.8-0.4-4.1,1.4-5.2c1.8-1.1,4.1-0.4,5.2,1.4c0.8,1.3,0.6,2.9-0.1,4
				C165.5,161,168.3,159.8,171,158.2z"/>
		</g>
		<g>
			<g>
				<path fill="#006838" d="M66.1,157.7c-3.6,9.7-6,16.8-7.2,21.4l-1.1,4.1c1.6,0.8,2.3,1.8,2,3.2c-0.3,1.2-1,1.8-2,2
					c-0.2,0-0.4,0-0.6-0.1l-0.7-0.2c-1.6,6.5-2.6,11.7-2.9,15.6c0,0.2,0,0.4-0.1,0.6c-0.3,1.2-1,1.8-2.2,1.9c-0.3,0-0.5,0-0.6-0.1
					c-0.9-0.2-1.3-0.9-1.2-2c0,0,0-0.1,0-0.2c0.8-6.8,1.7-12.5,2.6-17.1c-2.5-0.6-7.2-1.4-14.2-2.5c-0.2,0-0.3,0-0.5,0
					c-1.5,6.1-2.4,10.9-2.7,14.4c0,0.2,0,0.4-0.1,0.6c-0.3,1.1-1.3,1.6-3,1.6c-0.5,0-1-0.1-1.4-0.2c-1.9-0.5-2.8-1.4-2.7-2.6
					c1.5-10.2,3.2-19.1,5.2-26.8c2.3-8.7,4.8-15.8,7.6-21.2c0.9-1,2.2-1.4,3.9-1.2c1.8,0.5,2.8,1.3,2.9,2.5c0,0.3,0,0.5,0,0.8
					l-0.1,0.2l0,0.1c-3.7,11-6.5,19.9-8.4,26.8c7.1,1,11.9,1.8,14.5,2.5c0.1-0.4,0.3-1.1,0.5-2c0.2-0.9,0.3-1.6,0.4-2
					c1.9-7.2,4.6-14.6,8.2-22.1c0.6-1.1,1.4-1.6,2.4-1.6c1,0.2,1.4,1,1.3,2.2c0,0.3,0,0.5-0.1,0.7L66.1,157.7L66.1,157.7z"/>
				<path fill="#006838" d="M63,184.4c4.7-18.3,11.8-27,21.4-26.2c0.9,0.1,1.8,0.2,2.7,0.4c1.8,0.5,2.7,1.4,2.7,2.6
					c0,0.2,0,0.3,0,0.4c-0.1,0.2-0.2,0.4-0.3,0.6c1.5-0.5,3.1-0.6,4.7-0.2c3.6,0.9,4.7,5.7,3.5,14.3c-0.4,2.6-1,5.3-1.7,8.2
					c-2.8,10.9-7.4,18.7-13.6,23.3c-4,2.9-7.9,3.9-11.6,2.9c-4.2-1.1-6.9-4.2-8.3-9.2C61.1,196.8,61.3,191.1,63,184.4z M91.6,183.9
					c-1.7-1.5-3.2-3.9-4.5-7.2c-1.6-3.9-2-7.4-1.2-10.5c0.2-1,0.8-1.9,1.6-2.8c-0.6,0.1-1.2,0.1-1.8-0.1c-5.2-1.4-9.7,3.3-13.4,14.1
					c-1,2.9-2.2,6.8-3.4,11.6c-1.8,7-1.4,12.1,1.2,15.3c0.9,1,1.9,1.7,3.1,2c2.9,0.8,6-0.5,9.3-3.8c3.9-4,6.8-9.8,8.7-17.3
					L91.6,183.9z M92.8,177.9c1.1-7.1,0.4-11-2.1-11.7c-0.5,0.1-0.9,0.5-1.2,1.3C88.9,170,90,173.5,92.8,177.9z"/>
			</g>
			<g>
				<path fill="#006838" d="M213,160.5c4.3,9.4,7.6,16.1,10.1,20.2l2.2,3.7c1.7-0.6,2.9-0.4,3.7,0.8c0.6,1,0.6,2,0,2.8
					c-0.1,0.1-0.3,0.2-0.4,0.3l-0.6,0.4c3.5,5.7,6.5,10.1,9,13.1c0.2,0.2,0.3,0.3,0.4,0.5c0.6,1,0.5,2-0.2,2.9
					c-0.2,0.2-0.4,0.3-0.5,0.4c-0.8,0.5-1.6,0.3-2.3-0.6c0,0-0.1-0.1-0.1-0.1c-4.2-5.4-7.6-10.1-10.2-13.9
					c-2.2,1.4-6.1,4.1-11.8,8.3c-0.1,0.1-0.2,0.2-0.4,0.3c3.3,5.3,6,9.4,8.3,12.1c0.2,0.2,0.3,0.3,0.4,0.5c0.6,1,0.2,2-1,3.2
					c-0.4,0.3-0.7,0.6-1.1,0.9c-1.7,0.9-2.9,1-3.7,0.1c-6.1-8.3-11.2-15.8-15.3-22.7c-4.6-7.8-7.8-14.6-9.6-20.4
					c-0.1-1.4,0.6-2.6,1.9-3.6c1.6-0.9,2.9-1,3.9-0.3c0.2,0.2,0.4,0.4,0.5,0.6l0.1,0.2l0,0.1c5.1,10.4,9.5,18.7,13,24.9
					c5.8-4.3,9.8-7.1,12-8.5c-0.2-0.4-0.6-1-1-1.8c-0.5-0.8-0.9-1.4-1.1-1.7c-3.8-6.4-7.1-13.5-9.8-21.4c-0.3-1.2-0.1-2.1,0.6-2.8
					c0.9-0.5,1.7-0.3,2.5,0.6c0.2,0.2,0.3,0.4,0.4,0.6L213,160.5L213,160.5z"/>
				<path fill="#006838" d="M229.7,181.5c-9.6-16.2-10.7-27.5-3.4-33.6c0.7-0.6,1.4-1.1,2.2-1.6c1.6-1,2.9-1,3.7,0
					c0.1,0.1,0.2,0.2,0.3,0.3c0.1,0.2,0.2,0.4,0.2,0.7c0.7-1.4,1.7-2.6,3.2-3.4c3.2-1.9,7.4,0.7,12.6,7.6c1.5,2.1,3.1,4.4,4.6,7
					c5.7,9.7,8,18.4,6.9,26.1c-0.8,4.9-2.8,8.3-6.1,10.3c-3.7,2.2-7.8,2-12.4-0.7C237.1,191.7,233.2,187.5,229.7,181.5z M249.6,161
					c-2.2,0.2-5-0.5-8.3-1.9c-3.9-1.7-6.7-3.9-8.3-6.6c-0.5-0.9-0.8-1.9-0.8-3.1c-0.4,0.5-0.8,0.9-1.3,1.2
					c-4.7,2.7-4.5,9.2,0.5,19.5c1.3,2.8,3.3,6.3,5.8,10.7c3.7,6.2,7.6,9.6,11.6,10c1.4,0.1,2.6-0.1,3.7-0.8c2.6-1.5,3.9-4.6,3.9-9.2
					c-0.1-5.5-2.1-11.7-6.1-18.4L249.6,161z M246.2,155.9c-4.3-5.8-7.5-8-9.8-6.8c-0.3,0.4-0.2,1,0.1,1.8
					C237.9,153.1,241.1,154.7,246.2,155.9z"/>
			</g>
		</g>
		<g>
			<path fill="#006838" d="M140.5,178.6c-1.1,10.2-1.6,17.8-1.6,22.5v4.3c1.8,0.3,2.7,1.2,2.8,2.6c0,1.2-0.5,2-1.4,2.4
				c-0.2,0.1-0.3,0.1-0.6,0.1H139c0.1,6.7,0.5,12,1.1,15.8c0.1,0.2,0.1,0.4,0.1,0.6c0,1.2-0.6,2-1.7,2.4c-0.3,0.1-0.5,0.1-0.6,0.1
				c-0.9,0-1.5-0.6-1.7-1.7c0-0.1,0-0.1,0-0.2c-0.9-6.8-1.5-12.6-1.7-17.2c-2.6,0.1-7.4,0.4-14.3,1.2c-0.2,0.1-0.3,0.1-0.5,0.1
				c0.1,6.3,0.4,11.1,1,14.7c0.1,0.2,0.1,0.4,0.1,0.6c0,1.1-0.8,1.9-2.5,2.3c-0.5,0.1-0.9,0.2-1.4,0.2c-1.9-0.1-3-0.7-3.2-1.8
				c-1.1-10.2-1.7-19.3-1.7-27.3c0-9,0.7-16.5,2-22.5c0.6-1.2,1.8-1.9,3.5-2.1c1.8,0,3,0.6,3.5,1.7c0.1,0.3,0.2,0.5,0.2,0.8v0.2v0.1
				c-0.8,11.6-1.3,20.9-1.4,28c7.1-0.8,12-1.2,14.7-1.3c0-0.4,0-1.1,0-2c-0.1-0.9-0.1-1.6-0.1-2c0-7.5,0.8-15.3,2.4-23.4
				c0.3-1.2,1-1.9,2-2.1c1,0,1.6,0.6,1.8,1.8c0.1,0.3,0.1,0.5,0.1,0.7V178.6L140.5,178.6z"/>
			<path fill="#006838" d="M144.2,205.1c0-18.9,4.7-29.1,14.1-30.7c0.9-0.2,1.8-0.2,2.7-0.2c1.9,0,3,0.6,3.2,1.9
				c0.1,0.2,0.1,0.3,0.1,0.4c0,0.2-0.1,0.4-0.2,0.7c1.3-0.9,2.8-1.3,4.5-1.3c3.7,0,6,4.3,7,12.9c0.3,2.6,0.4,5.4,0.4,8.4
				c0,11.3-2.4,20-7.3,26c-3.2,3.8-6.6,5.7-10.5,5.8c-4.3,0-7.7-2.3-10.3-6.9C145.4,217.7,144.2,212.1,144.2,205.1z M171.8,197.5
				c-2-1-4-2.9-6.1-5.8c-2.5-3.4-3.8-6.7-3.8-9.8c0-1,0.3-2,0.9-3.1c-0.6,0.3-1.2,0.4-1.7,0.4c-5.4,0-8.6,5.7-9.5,17
				c-0.3,3-0.4,7.1-0.4,12.1c0,7.2,1.7,12.1,5,14.5c1.1,0.8,2.3,1.2,3.5,1.2c3,0,5.7-2,8-6c2.7-4.8,4.1-11.1,4.1-18.9V197.5z
				 M171.5,191.4c-0.7-7.1-2.4-10.7-5-10.8c-0.4,0.2-0.7,0.7-0.9,1.6C165.7,184.7,167.6,187.8,171.5,191.4z"/>
		</g>
	</g>
	<g>
		<g>
			<path fill="#DDB467" d="M241.4,73c-11.5,1.6-22.8,4.1-33.9,7.4c-3.5,1-2,6.5,1.5,5.5c11.1-3.3,22.4-5.8,33.9-7.4
				C246.5,78,245,72.5,241.4,73z"/>
			<path fill="#DDB467" d="M238.9,128.5c-9.3-7-19-13.2-29.2-18.8c-3.2-1.7-6.1,3.2-2.9,4.9c10.2,5.5,19.9,11.8,29.2,18.8
				C238.9,135.6,241.8,130.7,238.9,128.5z"/>
			<path fill="#DDB467" d="M227.2,100.5c3.6,0,3.7-5.7,0-5.7c-6.3,0-12.7,0-19,0c-3.6,0-3.7,5.7,0,5.7
				C214.6,100.5,220.9,100.5,227.2,100.5z"/>
		</g>
		<g>
			<path fill="#DDB467" d="M46.6,73c11.5,1.6,22.8,4.1,33.9,7.4c3.5,1,2,6.5-1.5,5.5c-11.1-3.3-22.4-5.8-33.9-7.4
				C41.5,78,43,72.5,46.6,73z"/>
			<path fill="#DDB467" d="M49.1,128.5c9.3-7,19-13.2,29.2-18.8c3.2-1.7,6.1,3.2,2.9,4.9C71,120.1,61.3,126.4,52,133.4
				C49.1,135.6,46.2,130.7,49.1,128.5z"/>
			<path fill="#DDB467" d="M60.8,100.5c-3.6,0-3.7-5.7,0-5.7c6.3,0,12.7,0,19,0c3.6,0,3.7,5.7,0,5.7
				C73.4,100.5,67.1,100.5,60.8,100.5z"/>
		</g>
	</g>
</g>
</svg>
